<mxfile host="app.diagrams.net" modified="2020-04-26T05:18:34.075Z" agent="5.0 (Macintosh; Intel Mac OS X 10_14_6) AppleWebKit/537.36 (KHTML, like Gecko) Chrome/80.0.3987.163 Safari/537.36" etag="cahh0NmvIMMD1LUw_BnL" version="12.9.14" type="github">
  <diagram name="Page-1" id="9f46799a-70d6-7492-0946-bef42562c5a5">
    <mxGraphModel dx="1186" dy="543" grid="1" gridSize="10" guides="1" tooltips="1" connect="1" arrows="1" fold="1" page="1" pageScale="1" pageWidth="1100" pageHeight="850" background="#ffffff" math="0" shadow="0">
      <root>
        <mxCell id="0" />
        <mxCell id="1" parent="0" />
        <mxCell id="nx6kOvaqC4dnTkP5-vss-2" value="&lt;b&gt;name&lt;/b&gt;&lt;div&gt;[Person]&lt;/div&gt;&lt;br&gt;&lt;div&gt;Description&lt;/div&gt;" style="html=1;dashed=0;whitespace=wrap;fillColor=#DAE8FC;strokeColor=#6C8EBF;shape=mxgraph.c4.person;align=center;points=[[0.5,0,0],[1,0.5,0],[1,0.75,0],[0.75,1,0],[0.5,1,0],[0.25,1,0],[0,0.75,0],[0,0.5,0]];" vertex="1" parent="1">
          <mxGeometry x="70" y="140" width="110.00000000000001" height="140" as="geometry" />
        </mxCell>
        <mxCell id="nx6kOvaqC4dnTkP5-vss-3" value="&lt;b&gt;name&lt;/b&gt;&lt;div&gt;[Software System]&lt;/div&gt;&lt;br&gt;&lt;div&gt;Description&lt;/div&gt;" style="rounded=1;whiteSpace=wrap;html=1;labelBackgroundColor=none;fillColor=#dae8fc;fontColor=#000000;align=center;arcSize=10;strokeColor=#6c8ebf;points=[[0.25,0,0],[0.5,0,0],[0.75,0,0],[1,0.25,0],[1,0.5,0],[1,0.75,0],[0.75,1,0],[0.5,1,0],[0.25,1,0],[0,0.75,0],[0,0.5,0],[0,0.25,0]];" vertex="1" parent="1">
          <mxGeometry x="240" y="155" width="160" height="110.00000000000001" as="geometry" />
        </mxCell>
        <mxCell id="nx6kOvaqC4dnTkP5-vss-4" value="&lt;span&gt;&lt;b&gt;name&lt;/b&gt;&lt;/span&gt;&lt;br&gt;&lt;div&gt;[Container:&amp;nbsp;&lt;span&gt;technology&lt;/span&gt;&lt;span&gt;]&lt;/span&gt;&lt;/div&gt;&lt;br&gt;&lt;div&gt;Description&lt;/div&gt;" style="rounded=1;whiteSpace=wrap;html=1;labelBackgroundColor=none;fillColor=#dae8fc;fontColor=#000000;align=center;arcSize=10;strokeColor=#6c8ebf;points=[[0.25,0,0],[0.5,0,0],[0.75,0,0],[1,0.25,0],[1,0.5,0],[1,0.75,0],[0.75,1,0],[0.5,1,0],[0.25,1,0],[0,0.75,0],[0,0.5,0],[0,0.25,0]];" vertex="1" parent="1">
          <mxGeometry x="500" y="155" width="160" height="110.00000000000001" as="geometry" />
        </mxCell>
        <mxCell id="nx6kOvaqC4dnTkP5-vss-5" value="&lt;div style=&quot;text-align: left&quot;&gt;name&lt;/div&gt;&lt;div style=&quot;text-align: left&quot;&gt;[applicationAndVersion]&lt;/div&gt;" style="rounded=1;whiteSpace=wrap;html=1;labelBackgroundColor=none;fillColor=#ffffff;fontColor=#000000;align=left;arcSize=5;strokeColor=#000000;verticalAlign=bottom;points=[[0.25,0,0],[0.5,0,0],[0.75,0,0],[1,0.25,0],[1,0.5,0],[1,0.75,0],[0.75,1,0],[0.5,1,0],[0.25,1,0],[0,0.75,0],[0,0.5,0],[0,0.25,0]];" vertex="1" parent="1">
          <mxGeometry x="720" y="140" width="200" height="170" as="geometry" />
        </mxCell>
        <mxCell id="nx6kOvaqC4dnTkP5-vss-6" value="&lt;div style=&quot;text-align: left&quot;&gt;hostname&lt;/div&gt;&lt;div style=&quot;text-align: left&quot;&gt;[operationSystem]&lt;/div&gt;&lt;div style=&quot;text-align: right&quot;&gt;scalingFactor&lt;/div&gt;" style="rounded=1;whiteSpace=wrap;html=1;labelBackgroundColor=none;fillColor=#ffffff;fontColor=#000000;align=left;arcSize=5;strokeColor=#000000;verticalAlign=bottom;points=[[0.25,0,0],[0.5,0,0],[0.75,0,0],[1,0.25,0],[1,0.5,0],[1,0.75,0],[0.75,1,0],[0.5,1,0],[0.25,1,0],[0,0.75,0],[0,0.5,0],[0,0.25,0]];" vertex="1" parent="1">
          <mxGeometry x="60" y="330" width="240" height="229.99999999999997" as="geometry" />
        </mxCell>
        <mxCell id="nx6kOvaqC4dnTkP5-vss-7" value="&lt;span&gt;Database&lt;/span&gt;&lt;div&gt;[Container:&amp;nbsp;technology]&lt;/div&gt;&lt;br&gt;&lt;div&gt;Description&lt;/div&gt;" style="shape=cylinder;whiteSpace=wrap;html=1;boundedLbl=1;rounded=0;labelBackgroundColor=none;fillColor=#dae8fc;fontSize=12;fontColor=#000000;align=center;strokeColor=#6c8ebf;points=[[0.5,0,0],[1,0.25,0],[1,0.5,0],[1,0.75,0],[0.5,1,0],[0,0.75,0],[0,0.5,0],[0,0.25,0]];" vertex="1" parent="1">
          <mxGeometry x="390" y="375" width="160" height="140" as="geometry" />
        </mxCell>
        <mxCell id="nx6kOvaqC4dnTkP5-vss-8" value="&lt;div style=&quot;text-align: left&quot;&gt;&lt;div style=&quot;text-align: center&quot;&gt;&lt;b&gt;Description&lt;/b&gt;&lt;/div&gt;&lt;div style=&quot;text-align: center&quot;&gt;[technology]&lt;/div&gt;&lt;/div&gt;" style="edgeStyle=none;rounded=0;html=1;entryX=0;entryY=0.5;jettySize=auto;orthogonalLoop=1;strokeColor=#A8A8A8;strokeWidth=2;fontColor=#000000;jumpStyle=none;dashed=1;" edge="1" parent="1">
          <mxGeometry width="200" relative="1" as="geometry">
            <mxPoint x="660" y="420" as="sourcePoint" />
            <mxPoint x="860" y="420" as="targetPoint" />
          </mxGeometry>
        </mxCell>
      </root>
    </mxGraphModel>
  </diagram>
</mxfile>
